<svg xmlns="http://www.w3.org/2000/svg" width="78.888" height="44.174" viewBox="0 0 78.888 44.174"><g transform="translate(-370.975 -473.881)"><path d="M379.227,506.891c-.114.65-.407,2.211-.52,2.619h-7.238v-.537c1.236-.1,1.367-.229,1.367-1.53v-6.278c0-1.351-.115-1.464-1.221-1.562v-.537h4.522v.537c-1.106.1-1.219.211-1.219,1.562v6.311c0,.781.064,1.106.357,1.252a3.021,3.021,0,0,0,1.106.13,1.822,1.822,0,0,0,1.513-.536,4.9,4.9,0,0,0,.8-1.562Z" fill="#50a2ca"/><path d="M385.443,509.51v-.537c.862-.115.944-.309.682-1.107-.147-.487-.342-1.138-.535-1.675h-2.783c-.129.407-.309.944-.487,1.578-.244.862-.179,1.057.91,1.2v.537h-3.367v-.537c.928-.1,1.172-.278,1.61-1.513l3.058-8.426.766-.179c.959,2.814,1.838,5.6,2.83,8.393.5,1.447.7,1.627,1.594,1.725v.537Zm-1.2-7.678h-.049c-.421,1.2-.748,2.358-1.138,3.529h2.277Z" fill="#50a2ca"/><path d="M398.781,506.68c-.113.682-.388,2.244-.553,2.83h-7.709l-.146-.261c1.676-2.9,3.871-6.864,5.416-9.532H394.18c-1.514,0-1.791.195-2.034.521a4.4,4.4,0,0,0-.586,1.512l-.521-.032c.066-1.107.164-2.245.18-3.058h.422c.228.374.423.406.863.406h5.773l.131.229c-1.789,3.123-3.529,6.2-5.336,9.449a11.817,11.817,0,0,0,1.789.1,3.78,3.78,0,0,0,2.424-.52,4.265,4.265,0,0,0,.943-1.758Z" fill="#50a2ca"/><path d="M404.394,498.855c2.6,0,4.571,2.131,4.571,5.352,0,3.432-2.049,5.514-4.733,5.514-2.83,0-4.668-2.31-4.668-5.4,0-2.651,1.545-5.465,4.815-5.465Zm-.244.634c-1.365,0-2.228,1.9-2.228,4.489,0,2.766.846,5.108,2.57,5.108,1.236,0,2.1-1.528,2.1-4.457,0-3.154-.877-5.14-2.422-5.14Z" fill="#50a2ca"/><path d="M420.141,499.6c-.831.033-1.155.326-1.219.862a14.608,14.608,0,0,0-.131,2.391V504.6a5.964,5.964,0,0,1-1.025,3.952,3.668,3.668,0,0,1-2.748,1.171,3.888,3.888,0,0,1-2.62-.83c-.812-.715-1.154-1.79-1.154-3.676V501.23c0-1.4-.115-1.529-1.187-1.627v-.537h4.408v.537c-1.026.1-1.139.228-1.139,1.627v3.936c0,2.294.731,3.465,2.293,3.465,1.609,0,2.391-1.237,2.391-3.871v-1.9a16.322,16.322,0,0,0-.129-2.374c-.067-.553-.375-.83-1.449-.879v-.537h3.709Z" fill="#50a2ca"/><path d="M430.131,509.672c-.18,0-.375,0-.586-.016-1.871-.082-2.424-.521-3.059-1.562a26.548,26.548,0,0,1-1.236-2.375c-.227-.5-.44-.732-.926-.748h-.277v2.423c0,1.334.131,1.5,1.221,1.579v.537h-4.506v-.537c1.121-.082,1.252-.245,1.252-1.579v-6.278c0-1.3-.114-1.4-1.188-1.513v-.537h4.359a4.29,4.29,0,0,1,2.522.57,2.447,2.447,0,0,1,1.041,2.131,2.75,2.75,0,0,1-1.871,2.635,24.528,24.528,0,0,0,1.236,2.342,12.072,12.072,0,0,0,1.139,1.708,2.75,2.75,0,0,0,.959.748Zm-5.645-5.335a1.893,1.893,0,0,0,1.35-.407,2.366,2.366,0,0,0,.7-1.919c0-1.708-.926-2.327-1.756-2.327a.573.573,0,0,0-.732.749v3.9Z" fill="#50a2ca"/><path d="M434.93,499.066c1.92,0,3.318.407,4.246,1.416a4.966,4.966,0,0,1,1.234,3.4,5.322,5.322,0,0,1-1.756,4.295,6.491,6.491,0,0,1-4.375,1.334h-3.644v-.537c1.156-.082,1.3-.229,1.3-1.594V501.2c0-1.383-.13-1.5-1.205-1.594v-.537Zm-.911,8.313c0,1.09.26,1.463,1.088,1.463,1.612,0,2.979-1.545,2.979-4.668a5.357,5.357,0,0,0-1.026-3.546,2.755,2.755,0,0,0-2.146-.927,1.325,1.325,0,0,0-.75.162c-.113.1-.145.326-.145.83Z" fill="#50a2ca"/><path d="M449.863,499.6c-.91.1-1.17.277-1.724,1.286-.569,1.024-.959,1.723-1.674,3.3a2.034,2.034,0,0,0-.244,1.09v2.082c0,1.382.113,1.5,1.414,1.611v.537h-4.848v-.537c1.221-.1,1.352-.229,1.352-1.611v-1.87a1.638,1.638,0,0,0-.164-.846c-.407-.912-.926-1.936-1.887-3.823-.5-.992-.748-1.122-1.528-1.22v-.537h4.26v.537c-.943.147-.926.293-.65.911.506,1.123,1.074,2.31,1.66,3.513.391-.861,1.121-2.375,1.529-3.48.227-.635.178-.814-.961-.944v-.537h3.465Z" fill="#50a2ca"/><path d="M372.639,515.742a.617.617,0,0,0-.881-.421.591.591,0,0,0-.211.187.831.831,0,0,0-.131.285,1.562,1.562,0,0,0,0,.728.836.836,0,0,0,.131.286.6.6,0,0,0,.211.187.607.607,0,0,0,.291.068q.451,0,.635-.656h.4a1.385,1.385,0,0,1-.135.418,1.16,1.16,0,0,1-.23.32,1.031,1.031,0,0,1-.309.206.888.888,0,0,1-.357.074h-.014a1.03,1.03,0,0,1-.451-.1.951.951,0,0,1-.332-.268,1.178,1.178,0,0,1-.207-.4,1.66,1.66,0,0,1-.07-.494,1.58,1.58,0,0,1,.154-.718.948.948,0,0,1,.494-.458,1.721,1.721,0,0,1,.213-.061,1.213,1.213,0,0,1,.213-.028.92.92,0,0,1,.619.216,1.31,1.31,0,0,1,.373.633Z" fill="#3a3336"/><path d="M375.937,516.476a1.36,1.36,0,0,1-.056.408.811.811,0,0,1-.156.3.685.685,0,0,1-.254.181.889.889,0,0,1-.34.063.741.741,0,0,1-.59-.242,1.041,1.041,0,0,1-.211-.706,1.409,1.409,0,0,1,.055-.4.84.84,0,0,1,.158-.3.635.635,0,0,1,.252-.18.891.891,0,0,1,.336-.061.908.908,0,0,1,.34.061.671.671,0,0,1,.254.18.807.807,0,0,1,.156.3A1.342,1.342,0,0,1,375.937,516.476Zm-.365,0a.925.925,0,0,0-.027-.219.615.615,0,0,0-.084-.185.411.411,0,0,0-.137-.129.386.386,0,0,0-.193-.048.359.359,0,0,0-.176.044.422.422,0,0,0-.137.119.6.6,0,0,0-.09.185.883.883,0,0,0,0,.464.558.558,0,0,0,.088.187.4.4,0,0,0,.137.123.357.357,0,0,0,.178.045.368.368,0,0,0,.185-.046.444.444,0,0,0,.139-.127.679.679,0,0,0,.088-.188A.855.855,0,0,0,375.572,516.476Z" fill="#3a3336"/><path d="M377.353,515.582h.342l.01.144a.64.64,0,0,1,.467-.192h.025a.836.836,0,0,1,.25.041.516.516,0,0,1,.17.1.452.452,0,0,1,.106.143.832.832,0,0,1,.056.179v1.354h-.361v-1.212a.249.249,0,0,0-.08-.2.32.32,0,0,0-.207-.067.371.371,0,0,0-.309.138.656.656,0,0,0-.107.408v.934h-.362Z" fill="#3a3336"/><path d="M380.635,515.131v.451h.261v.336h-.261v1.117c0,.036.031.055.1.055a.5.5,0,0,0,.164-.028v.332a.713.713,0,0,1-.142.03c-.041,0-.082,0-.119,0H380.6a.319.319,0,0,1-.121-.024.324.324,0,0,1-.106-.064.313.313,0,0,1-.07-.092.219.219,0,0,1-.03-.11v-1.22h-.228v-.336h.228v-.451Z" fill="#3a3336"/><path d="M382.269,517.348v-1.766h.364v.16a.643.643,0,0,1,.168-.152.334.334,0,0,1,.172-.056h.2v.375a.469.469,0,0,0-.537.526v.913Z" fill="#3a3336"/><path d="M385.736,517.049a.044.044,0,0,0,.028.039.107.107,0,0,0,.056.017.323.323,0,0,0,.108-.025v.3a1.03,1.03,0,0,1-.252.039.22.22,0,0,1-.09-.019.413.413,0,0,1-.08-.048.454.454,0,0,1-.065-.067.416.416,0,0,1-.047-.077,1.712,1.712,0,0,1-.273.157.587.587,0,0,1-.23.054.694.694,0,0,1-.471-.141.491.491,0,0,1-.16-.391v-.044a.629.629,0,0,1,.068-.238.478.478,0,0,1,.15-.16.777.777,0,0,1,.231-.1,2.013,2.013,0,0,1,.31-.052c.077,0,.137-.008.184-.014a.453.453,0,0,0,.1-.021.1.1,0,0,0,.046-.032.068.068,0,0,0,.012-.042V516c-.006-.033-.043-.065-.113-.092a.717.717,0,0,0-.275-.043c-.184,0-.282.1-.295.309h-.346l.014-.21a.428.428,0,0,1,.085-.177.591.591,0,0,1,.153-.136.715.715,0,0,1,.2-.085.888.888,0,0,1,.232-.03,1.253,1.253,0,0,1,.309.034.885.885,0,0,1,.225.09.4.4,0,0,1,.136.129.261.261,0,0,1,.047.147Zm-.371-.5c-.053.015-.1.029-.154.039a1.272,1.272,0,0,1-.154.025h0l-.164.032a.871.871,0,0,0-.138.041.257.257,0,0,0-.094.067.174.174,0,0,0-.033.11v.009a.208.208,0,0,0,.066.171.328.328,0,0,0,.176.064h.018a.478.478,0,0,0,.177-.031.624.624,0,0,0,.151-.074.429.429,0,0,0,.105-.095.138.138,0,0,0,.041-.085Z" fill="#3a3336"/><path d="M388.734,516.678a.887.887,0,0,1-.068.33.718.718,0,0,1-.164.234.623.623,0,0,1-.231.137.817.817,0,0,1-.263.045h-.037a.773.773,0,0,1-.33-.084.658.658,0,0,1-.235-.2.816.816,0,0,1-.138-.289,1.25,1.25,0,0,1-.047-.353v-.047a1.185,1.185,0,0,1,.06-.342.947.947,0,0,1,.158-.29.784.784,0,0,1,.245-.2.725.725,0,0,1,.33-.082h.013a.964.964,0,0,1,.256.033.564.564,0,0,1,.213.114.626.626,0,0,1,.156.215,1.2,1.2,0,0,1,.088.342h-.357a.624.624,0,0,0-.059-.18.382.382,0,0,0-.088-.113.254.254,0,0,0-.1-.056.351.351,0,0,0-.1-.016h-.01a.462.462,0,0,0-.146.035.363.363,0,0,0-.137.106.579.579,0,0,0-.1.2,1.033,1.033,0,0,0-.041.32.782.782,0,0,0,.033.24.559.559,0,0,0,.088.171.372.372,0,0,0,.131.1.39.39,0,0,0,.156.033h.023a.346.346,0,0,0,.162-.053.394.394,0,0,0,.112-.1.476.476,0,0,0,.062-.126.6.6,0,0,0,.026-.12Z" fill="#3a3336"/><path d="M390.486,515.131v.451h.262v.336h-.262v1.117c0,.036.032.055.1.055a.5.5,0,0,0,.164-.028v.332a.736.736,0,0,1-.143.03c-.041,0-.082,0-.119,0h-.037a.318.318,0,0,1-.121-.024.33.33,0,0,1-.105-.064.316.316,0,0,1-.071-.092.229.229,0,0,1-.029-.11v-1.22h-.229v-.336h.229v-.451Z" fill="#3a3336"/><path d="M392.49,514.934v.346h-.361v-.346Zm0,.648v1.766h-.361v-1.766Z" fill="#3a3336"/><path d="M394.018,515.582h.341l.01.144a.639.639,0,0,1,.467-.192h.025a.836.836,0,0,1,.25.041.516.516,0,0,1,.17.1.452.452,0,0,1,.106.143.832.832,0,0,1,.056.179v1.354h-.361v-1.212a.249.249,0,0,0-.08-.2.32.32,0,0,0-.207-.067.372.372,0,0,0-.309.138.656.656,0,0,0-.107.408v.934h-.361Z" fill="#3a3336"/><path d="M397.609,515.534a.668.668,0,0,1,.44.2l.025-.153h.322v1.439a2.357,2.357,0,0,1-.039.473.687.687,0,0,1-.121.295.522.522,0,0,1-.222.169,1.669,1.669,0,0,1-.338.088l-.049.007a.432.432,0,0,1-.051,0,.752.752,0,0,1-.269-.047.7.7,0,0,1-.211-.129.621.621,0,0,1-.141-.194.645.645,0,0,1-.062-.239h.355a.388.388,0,0,0,.113.206.365.365,0,0,0,.248.071.521.521,0,0,0,.174-.026.294.294,0,0,0,.127-.086.432.432,0,0,0,.08-.156.9.9,0,0,0,.039-.232.68.68,0,0,1-.472.2h-.018a.645.645,0,0,1-.25-.065.712.712,0,0,1-.227-.175.943.943,0,0,1-.164-.287,1.193,1.193,0,0,1-.062-.4,1.26,1.26,0,0,1,.084-.485.806.806,0,0,1,.295-.357.626.626,0,0,1,.185-.088.7.7,0,0,1,.19-.03Zm.295,1.425a.67.67,0,0,0,.131-.455.8.8,0,0,0-.092-.426.375.375,0,0,0-.31-.16h-.006a.36.36,0,0,0-.293.137.734.734,0,0,0-.119.435v.053a.621.621,0,0,0,.105.39.389.389,0,0,0,.285.147h.036A.339.339,0,0,0,397.9,516.959Z" fill="#3a3336"/><path d="M403.449,516.229a1.113,1.113,0,0,1-.191.566l.453.549h-.488l-.188-.225a1.5,1.5,0,0,1-.156.143.677.677,0,0,1-.156.093.735.735,0,0,1-.174.053,1.3,1.3,0,0,1-.211.016.765.765,0,0,1-.291-.053.674.674,0,0,1-.221-.143.644.644,0,0,1-.144-.211.685.685,0,0,1-.055-.254v-.037a.872.872,0,0,1,.021-.205.59.59,0,0,1,.067-.17.744.744,0,0,1,.113-.144,1.352,1.352,0,0,1,.168-.133l.137-.094-.086-.112a.724.724,0,0,1-.145-.412.523.523,0,0,1,.045-.212.533.533,0,0,1,.127-.177.594.594,0,0,1,.194-.12.688.688,0,0,1,.248-.045.57.57,0,0,1,.234.049.63.63,0,0,1,.187.127.62.62,0,0,1,.125.177.47.47,0,0,1,.045.2.57.57,0,0,1-.078.295.725.725,0,0,1-.232.229l-.129.085.35.434a.842.842,0,0,0,.07-.285v-.06h.361Zm-1.068.842a.717.717,0,0,0,.125-.018.556.556,0,0,0,.1-.039.759.759,0,0,0,.1-.067c.033-.027.07-.058.109-.1l-.476-.6c-.073.047-.131.086-.176.121a.617.617,0,0,0-.106.1.281.281,0,0,0-.05.1.408.408,0,0,0-.014.115v.035a.29.29,0,0,0,.031.131.392.392,0,0,0,.084.11.481.481,0,0,0,.117.076.349.349,0,0,0,.139.028Zm.322-1.733c-.027-.075-.1-.113-.205-.113-.156,0-.232.08-.232.24a.387.387,0,0,0,0,.063.213.213,0,0,0,.018.05.371.371,0,0,0,.029.044c.012.015.026.03.043.05a.149.149,0,0,0,.3-.028.265.265,0,0,0,.074-.183.258.258,0,0,0-.027-.119Z" fill="#3a3336"/><path d="M408.58,516.627a1.246,1.246,0,0,0,.029-.244H407.9v-.362h1.069v1.34h-.278l-.056-.246a2.361,2.361,0,0,1-.2.152.979.979,0,0,1-.184.091.864.864,0,0,1-.188.047c-.064.009-.136.015-.216.019a.725.725,0,0,1-.168-.022,1.647,1.647,0,0,1-.188-.052,1.355,1.355,0,0,1-.178-.078.642.642,0,0,1-.132-.089,1.369,1.369,0,0,1-.307-.429,1.4,1.4,0,0,1-.113-.586,1.6,1.6,0,0,1,.072-.492,1.1,1.1,0,0,1,.219-.4,1.059,1.059,0,0,1,.365-.273,1.28,1.28,0,0,1,.51-.111h.051a1,1,0,0,1,.39.07.916.916,0,0,1,.291.187.935.935,0,0,1,.192.266,1.125,1.125,0,0,1,.1.31h-.389a.391.391,0,0,0-.064-.184.573.573,0,0,0-.141-.15.7.7,0,0,0-.2-.1.754.754,0,0,0-.234-.036.772.772,0,0,0-.326.066.7.7,0,0,0-.243.187.837.837,0,0,0-.152.287,1.311,1.311,0,0,0,0,.738.846.846,0,0,0,.152.287.689.689,0,0,0,.243.186.772.772,0,0,0,.326.065.732.732,0,0,0,.242-.038.653.653,0,0,0,.193-.1.6.6,0,0,0,.141-.144.575.575,0,0,0,.08-.166Z" fill="#3a3336"/><path d="M410.516,516.618v.005a.5.5,0,0,0,.041.211.434.434,0,0,0,.109.146.473.473,0,0,0,.156.088.525.525,0,0,0,.18.031c.043,0,.08,0,.113,0a.287.287,0,0,0,.086-.019.223.223,0,0,0,.074-.046.9.9,0,0,0,.082-.086h.393a.822.822,0,0,1-.311.367.951.951,0,0,1-.494.112.9.9,0,0,1-.324-.058.654.654,0,0,1-.254-.173.81.81,0,0,1-.168-.289,1.266,1.266,0,0,1-.058-.4v-.024a1.206,1.206,0,0,1,.07-.413.916.916,0,0,1,.176-.3.716.716,0,0,1,.254-.178.766.766,0,0,1,.3-.06h.034a.8.8,0,0,1,.312.055.594.594,0,0,1,.209.148.712.712,0,0,1,.131.207,1.27,1.27,0,0,1,.07.238c.016.081.033.229.053.444Zm.419-.772a.342.342,0,0,0-.134.027.377.377,0,0,0-.121.082.447.447,0,0,0-.094.139.661.661,0,0,0-.053.2h.824a.585.585,0,0,0-.109-.332.346.346,0,0,0-.285-.111Z" fill="#3a3336"/><path d="M413.133,515.582h.342l.011.144a.633.633,0,0,1,.467-.192h.025a.835.835,0,0,1,.249.041.511.511,0,0,1,.171.1.452.452,0,0,1,.106.143.889.889,0,0,1,.055.179v1.354H414.2v-1.212a.249.249,0,0,0-.08-.2.31.31,0,0,0-.205-.067.367.367,0,0,0-.309.138.656.656,0,0,0-.107.408v.934h-.363Z" fill="#3a3336"/><path d="M416.33,517.174a.185.185,0,0,1-.016.074.173.173,0,0,1-.041.06.18.18,0,0,1-.06.042.178.178,0,0,1-.076.016.17.17,0,0,1-.192-.192.192.192,0,0,1,.053-.133.182.182,0,0,1,.139-.059.2.2,0,0,1,.134.053A.182.182,0,0,1,416.33,517.174Z" fill="#3a3336"/><path d="M421.478,517.348v-1.659l-.56,1.659h-.365l-.559-1.659v1.659H419.6v-2.414h.5l.642,1.89.637-1.89h.5v2.414Z" fill="#3a3336"/><path d="M424.764,517.049a.043.043,0,0,0,.027.039.107.107,0,0,0,.057.017.324.324,0,0,0,.107-.025v.3a1.029,1.029,0,0,1-.252.039.228.228,0,0,1-.09-.019.445.445,0,0,1-.08-.048.451.451,0,0,1-.064-.067.369.369,0,0,1-.047-.077,1.762,1.762,0,0,1-.274.157.587.587,0,0,1-.23.054.7.7,0,0,1-.471-.141.494.494,0,0,1-.16-.391v-.044a.648.648,0,0,1,.068-.238.481.481,0,0,1,.151-.16.76.76,0,0,1,.23-.1,2.028,2.028,0,0,1,.311-.052c.076,0,.137-.008.183-.014a.453.453,0,0,0,.1-.021.106.106,0,0,0,.047-.032.068.068,0,0,0,.012-.042V516c-.006-.033-.043-.065-.114-.092a.717.717,0,0,0-.275-.043c-.184,0-.281.1-.295.309h-.346l.014-.21a.43.43,0,0,1,.086-.177.586.586,0,0,1,.152-.136.728.728,0,0,1,.2-.085.9.9,0,0,1,.233-.03,1.245,1.245,0,0,1,.308.034.884.884,0,0,1,.225.09.407.407,0,0,1,.137.129.269.269,0,0,1,.047.147Zm-.371-.5c-.053.015-.1.029-.155.039a1.241,1.241,0,0,1-.154.025h0l-.164.032a.853.853,0,0,0-.139.041.266.266,0,0,0-.094.067.174.174,0,0,0-.033.11v.009a.208.208,0,0,0,.067.171.324.324,0,0,0,.175.064h.018a.486.486,0,0,0,.178-.031.635.635,0,0,0,.15-.074.456.456,0,0,0,.106-.095.143.143,0,0,0,.041-.085Z" fill="#3a3336"/><path d="M426.721,514.934v.346h-.362v-.346Zm0,.648v1.766h-.362v-1.766Z" fill="#3a3336"/><path d="M428.248,515.582h.342l.01.144a.637.637,0,0,1,.466-.192h.026a.848.848,0,0,1,.25.041.526.526,0,0,1,.17.1.434.434,0,0,1,.105.143.833.833,0,0,1,.057.179v1.354h-.362v-1.212a.249.249,0,0,0-.08-.2.318.318,0,0,0-.207-.067.37.37,0,0,0-.308.138.649.649,0,0,0-.108.408v.934h-.361Z" fill="#3a3336"/><path d="M431.527,515.131v.451h.264v.336h-.264v1.117c0,.036.033.055.1.055a.526.526,0,0,0,.166-.028v.332a.8.8,0,0,1-.143.03c-.043,0-.082,0-.121,0h-.037a.326.326,0,0,1-.121-.024.348.348,0,0,1-.176-.156.251.251,0,0,1-.027-.11v-1.22h-.229v-.336h.229v-.451Z" fill="#3a3336"/><path d="M433.443,516.618v.005a.515.515,0,0,0,.041.211.458.458,0,0,0,.266.234.536.536,0,0,0,.182.031q.064,0,.111,0a.308.308,0,0,0,.088-.019.215.215,0,0,0,.072-.046.7.7,0,0,0,.082-.086h.395a.822.822,0,0,1-.311.367.956.956,0,0,1-.494.112.882.882,0,0,1-.324-.058.661.661,0,0,1-.256-.173.807.807,0,0,1-.166-.289,1.209,1.209,0,0,1-.061-.4v-.024a1.253,1.253,0,0,1,.073-.413.863.863,0,0,1,.175-.3.708.708,0,0,1,.252-.178.774.774,0,0,1,.3-.06h.035a.8.8,0,0,1,.311.055.585.585,0,0,1,.211.148.749.749,0,0,1,.129.207,1.348,1.348,0,0,1,.07.238,4.374,4.374,0,0,1,.055.444Zm.422-.772a.329.329,0,0,0-.135.027.338.338,0,0,0-.121.082.444.444,0,0,0-.093.139.558.558,0,0,0-.053.2h.822a.6.6,0,0,0-.107-.332.35.35,0,0,0-.285-.111Z" fill="#3a3336"/><path d="M436.062,515.582h.342l.01.144a.639.639,0,0,1,.467-.192h.025a.836.836,0,0,1,.25.041.515.515,0,0,1,.17.1.452.452,0,0,1,.106.143.832.832,0,0,1,.056.179v1.354h-.361v-1.212a.249.249,0,0,0-.08-.2.319.319,0,0,0-.207-.067.371.371,0,0,0-.309.138.656.656,0,0,0-.107.408v.934h-.362Z" fill="#3a3336"/><path d="M440.365,517.049a.044.044,0,0,0,.028.039.107.107,0,0,0,.056.017.323.323,0,0,0,.108-.025v.3a1.029,1.029,0,0,1-.252.039.22.22,0,0,1-.09-.019.385.385,0,0,1-.08-.048.454.454,0,0,1-.065-.067.416.416,0,0,1-.047-.077,1.712,1.712,0,0,1-.273.157.588.588,0,0,1-.231.054.691.691,0,0,1-.47-.141.491.491,0,0,1-.16-.391v-.044a.629.629,0,0,1,.068-.238.478.478,0,0,1,.15-.16.777.777,0,0,1,.231-.1,2.013,2.013,0,0,1,.31-.052c.077,0,.137-.008.184-.014a.43.43,0,0,0,.1-.021.1.1,0,0,0,.047-.032.068.068,0,0,0,.012-.042V516c-.006-.033-.043-.065-.113-.092a.722.722,0,0,0-.276-.043c-.183,0-.281.1-.3.309h-.345l.013-.21a.43.43,0,0,1,.086-.177.576.576,0,0,1,.153-.136.715.715,0,0,1,.2-.085.888.888,0,0,1,.232-.03,1.253,1.253,0,0,1,.309.034.884.884,0,0,1,.225.09.4.4,0,0,1,.136.129.261.261,0,0,1,.047.147Zm-.371-.5c-.053.015-.1.029-.154.039a1.257,1.257,0,0,1-.155.025h0l-.164.032a.871.871,0,0,0-.138.041.257.257,0,0,0-.094.067.168.168,0,0,0-.033.11v.009a.208.208,0,0,0,.066.171.328.328,0,0,0,.176.064h.017a.479.479,0,0,0,.178-.031.624.624,0,0,0,.151-.074.429.429,0,0,0,.105-.095.143.143,0,0,0,.041-.085Z" fill="#3a3336"/><path d="M441.953,515.582h.342l.01.144a.639.639,0,0,1,.466-.192h.026a.848.848,0,0,1,.25.041.526.526,0,0,1,.17.1.435.435,0,0,1,.1.143.833.833,0,0,1,.057.179v1.354h-.361v-1.212a.25.25,0,0,0-.081-.2.318.318,0,0,0-.207-.067.37.37,0,0,0-.308.138.655.655,0,0,0-.108.408v.934h-.361Z" fill="#3a3336"/><path d="M446.281,516.678a.85.85,0,0,1-.068.33.713.713,0,0,1-.162.234.656.656,0,0,1-.231.137.821.821,0,0,1-.263.045h-.038a.79.79,0,0,1-.332-.084.7.7,0,0,1-.234-.2.873.873,0,0,1-.139-.289,1.371,1.371,0,0,1-.045-.353v-.047a1.123,1.123,0,0,1,.061-.342.987.987,0,0,1,.156-.29.776.776,0,0,1,.246-.2.727.727,0,0,1,.328-.082h.014a.943.943,0,0,1,.256.033.557.557,0,0,1,.213.114.613.613,0,0,1,.156.215,1.161,1.161,0,0,1,.09.342h-.357a.593.593,0,0,0-.061-.18.414.414,0,0,0-.086-.113.284.284,0,0,0-.1-.056.369.369,0,0,0-.106-.016h-.008a.456.456,0,0,0-.146.035.369.369,0,0,0-.139.106.579.579,0,0,0-.1.2,1.1,1.1,0,0,0-.04.32.78.78,0,0,0,.034.24.467.467,0,0,0,.088.171.391.391,0,0,0,.128.1.4.4,0,0,0,.157.033h.023a.346.346,0,0,0,.164-.053.362.362,0,0,0,.11-.1.509.509,0,0,0,.062-.126.443.443,0,0,0,.025-.12Z" fill="#3a3336"/><path d="M447.949,516.618v.005a.516.516,0,0,0,.041.211.458.458,0,0,0,.266.234.53.53,0,0,0,.181.031c.043,0,.081,0,.112,0a.308.308,0,0,0,.088-.019.226.226,0,0,0,.072-.046.786.786,0,0,0,.082-.086h.394a.82.82,0,0,1-.31.367.956.956,0,0,1-.494.112.882.882,0,0,1-.324-.058.661.661,0,0,1-.256-.173.793.793,0,0,1-.166-.289,1.208,1.208,0,0,1-.061-.4v-.024a1.28,1.28,0,0,1,.072-.413.865.865,0,0,1,.176-.3.691.691,0,0,1,.252-.178.771.771,0,0,1,.3-.06h.035a.8.8,0,0,1,.311.055.585.585,0,0,1,.211.148.725.725,0,0,1,.128.207,1.274,1.274,0,0,1,.071.238q.025.121.054.444Zm.422-.772a.329.329,0,0,0-.135.027.338.338,0,0,0-.121.082.465.465,0,0,0-.094.139.58.58,0,0,0-.052.2h.822a.6.6,0,0,0-.107-.332.35.35,0,0,0-.286-.111Z" fill="#3a3336"/><rect width="78.596" height="0.871" transform="translate(371.245 512.469)" fill="#999"/><rect width="0.758" height="3.365" transform="translate(391.003 492)" fill="#4d4d4d"/><rect width="0.76" height="4.125" transform="translate(411.52 491.24)" fill="#4d4d4d"/><rect width="0.76" height="4.703" transform="translate(430.464 490.662)" fill="#4d4d4d"/><path d="M398.384,484.194l10.8-10.314,32.84,19.322-7.707-.008-27.453-15.91L399.28,484.4Z" fill="#50a2ca"/><path d="M387.419,490.057l10.8-10.314,23.723,13.571-7.709-.009L395.9,483.148l-7.584,7.119Z" fill="#999"/><path d="M379.06,493.3l8.033-6.613,12.377,6.721-6.514-.108-7.49-4.225-5.32,4.225Z" fill="#333"/></g></svg>